# xmcd
#
# Track frame offsets:
#	150
#	13851
#	25665
#	38815
#	49497
#	66580
#	81449
#
# Disc length: 1262 seconds
#
# Revision: 0
# Processed by: cddbd v1.5.1PL0 Copyright (c) Steve Scherf et al.
# Submitted via: dBpowerAMP V4.0
#
DISCID=5e04ec07
DTITLE=Acoustic Endeavors - Sneak Preview
DYEAR=2000
DGENRE=Bluegrass
TTITLE0=Careful Of My Heart
TTITLE1=Working Like The Devil
TTITLE2=Just Go On
TTITLE3=Buckshot
TTITLE4=Hummingbird
TTITLE5=Goodbyes
TTITLE6=First Train
EXTD=
EXTT0=
EXTT1=
EXTT2=
EXTT3=
EXTT4=
EXTT5=
EXTT6=
PLAYORDER=
